<svg class="plot-d6a7b5" fill="currentColor" font-family="system-ui, sans-serif" font-size="10" text-anchor="middle" width="640" height="261.68" viewBox="0 0 640 261.68" xmlns="http://www.w3.org/2000/svg" xmlns:xlink="http://www.w3.org/1999/xlink"><style>:where(.plot-d6a7b5) {
  --plot-background: white;
  display: block;
  height: auto;
  height: intrinsic;
  max-width: 100%;
}
:where(.plot-d6a7b5 text),
:where(.plot-d6a7b5 tspan) {
  white-space: pre;
}</style><g aria-label="y-grid" stroke="currentColor" stroke-opacity="0.1"><line x1="40" x2="600" y1="231.68" y2="231.68"/><line x1="40" x2="600" y1="196.68" y2="196.68"/><line x1="40" x2="600" y1="161.68" y2="161.68"/><line x1="40" x2="600" y1="126.68" y2="126.68"/><line x1="40" x2="600" y1="91.67999999999999" y2="91.67999999999999"/><line x1="40" x2="600" y1="56.67999999999999" y2="56.67999999999999"/><line x1="40" x2="600" y1="21.679999999999993" y2="21.679999999999993"/></g><g aria-label="y-axis tick" fill="none" stroke="currentColor"><path transform="translate(40,231.68)" d="M0,0L-6,0"/><path transform="translate(40,196.68)" d="M0,0L-6,0"/><path transform="translate(40,161.68)" d="M0,0L-6,0"/><path transform="translate(40,126.68)" d="M0,0L-6,0"/><path transform="translate(40,91.67999999999999)" d="M0,0L-6,0"/><path transform="translate(40,56.67999999999999)" d="M0,0L-6,0"/><path transform="translate(40,21.679999999999993)" d="M0,0L-6,0"/></g><g aria-label="y-axis tick label" text-anchor="end" font-variant="tabular-nums" transform="translate(-9,0)"><text y="0.32em" transform="translate(40,231.68)">0</text><text y="0.32em" transform="translate(40,196.68)">500</text><text y="0.32em" transform="translate(40,161.68)">1,000</text><text y="0.32em" transform="translate(40,126.68)">1,500</text><text y="0.32em" transform="translate(40,91.67999999999999)">2,000</text><text y="0.32em" transform="translate(40,56.67999999999999)">2,500</text><text y="0.32em" transform="translate(40,21.679999999999993)">3,000</text></g><g aria-label="y-axis label" text-anchor="start" transform="translate(-37,-17)"><text y="0.71em" transform="translate(40,20)">↑ revenue (M)</text></g><g aria-label="x-axis tick" fill="none" stroke="currentColor"><path transform="translate(110,231.68)" d="M0,0L0,6"/><path transform="translate(197.5,231.68)" d="M0,0L0,6"/><path transform="translate(285,231.68)" d="M0,0L0,6"/><path transform="translate(372.5,231.68)" d="M0,0L0,6"/><path transform="translate(460,231.68)" d="M0,0L0,6"/><path transform="translate(547.5,231.68)" d="M0,0L0,6"/></g><g aria-label="x-axis tick label" font-variant="tabular-nums" transform="translate(0,9)"><text y="0.71em" transform="translate(110,231.68)">1995</text><text y="0.71em" transform="translate(197.5,231.68)">2000</text><text y="0.71em" transform="translate(285,231.68)">2005</text><text y="0.71em" transform="translate(372.5,231.68)">2010</text><text y="0.71em" transform="translate(460,231.68)">2015</text><text y="0.71em" transform="translate(547.5,231.68)">2020</text></g><g aria-label="x-axis label" text-anchor="end" transform="translate(37,27)"><text transform="translate(600,231.68)">year →</text></g><g aria-label="rule" stroke="currentColor"><line x1="40" x2="600" y1="231.68" y2="231.68"/></g><g aria-label="y-axis tick" fill="none" stroke="steelblue"><path transform="translate(600,231.68)" d="M0,0L6,0"/><path transform="translate(600,205.22)" d="M0,0L6,0"/><path transform="translate(600,178.76)" d="M0,0L6,0"/><path transform="translate(600,152.3)" d="M0,0L6,0"/><path transform="translate(600,125.84)" d="M0,0L6,0"/><path transform="translate(600,99.38)" d="M0,0L6,0"/><path transform="translate(600,72.92000000000003)" d="M0,0L6,0"/><path transform="translate(600,46.46000000000002)" d="M0,0L6,0"/><path transform="translate(600,20)" d="M0,0L6,0"/></g><g aria-label="y-axis tick label" fill="steelblue" text-anchor="start" font-variant="tabular-nums" transform="translate(9,0)"><text y="0.32em" transform="translate(600,231.68)">0%</text><text y="0.32em" transform="translate(600,205.22)">5%</text><text y="0.32em" transform="translate(600,178.76)">10%</text><text y="0.32em" transform="translate(600,152.3)">15%</text><text y="0.32em" transform="translate(600,125.84)">20%</text><text y="0.32em" transform="translate(600,99.38)">25%</text><text y="0.32em" transform="translate(600,72.92000000000003)">30%</text><text y="0.32em" transform="translate(600,46.46000000000002)">35%</text><text y="0.32em" transform="translate(600,20)">40%</text></g><g aria-label="y-axis label" fill="steelblue" text-anchor="end" transform="translate(37,-17)"><text y="0.71em" transform="translate(600,20)">Revenue from fares ÷ Revenue ↑</text></g><g aria-label="line" fill="none" stroke="green" stroke-width="2" stroke-linejoin="round" stroke-linecap="round"><path d="M40,181.177C45.833,179.671,51.667,178.165,57.5,177.49C63.333,176.816,69.167,176.975,75,176.142C80.833,175.309,86.667,173.485,92.5,173.708C98.333,173.931,104.167,176.201,110,176.765C115.833,177.329,121.667,176.186,127.5,175.157C133.333,174.129,139.167,173.216,145,172.044C150.833,170.872,156.667,169.441,162.5,167.316C168.333,165.19,174.167,162.369,180,161.342C185.833,160.314,191.667,161.081,197.5,160.459C203.333,159.836,209.167,157.825,215,155.956C220.833,154.087,226.667,152.36,232.5,151.646C238.333,150.931,244.167,151.228,250,150.936C255.833,150.644,261.667,149.763,267.5,148.789C273.333,147.814,279.167,146.746,285,145.854C290.833,144.963,296.667,144.249,302.5,142.987C308.333,141.725,314.167,139.916,320,137.937C325.833,135.959,331.667,133.812,337.5,133.137C343.333,132.462,349.167,133.259,355,130.427C360.833,127.596,366.667,121.137,372.5,118.793C378.333,116.449,384.167,118.22,390,118.757C395.833,119.294,401.667,118.598,407.5,115.666C413.333,112.734,419.167,107.567,425,106.076C430.833,104.585,436.667,106.77,442.5,101.021C448.333,95.272,454.167,81.588,460,95.664C465.833,109.739,471.667,151.574,477.5,151.646C483.333,151.717,489.167,110.027,495,95.775C500.833,81.523,506.667,94.711,512.5,95.523C518.333,96.335,524.167,84.77,530,79.801C535.833,74.832,541.667,76.459,547.5,72.703C553.333,68.947,559.167,59.81,565,46.733C570.833,33.656,576.667,16.64,582.5,20C588.333,23.36,594.167,47.097,600,70.834"/></g><g aria-label="line" fill="none" stroke="steelblue" stroke-width="3" stroke-linejoin="round" stroke-linecap="round"><path d="M40,116.941C45.833,117.59,51.667,118.24,57.5,117.481C63.333,116.723,69.167,114.557,75,114.307C80.833,114.057,86.667,115.723,92.5,113.516C98.333,111.309,104.167,105.229,110,103.435C115.833,101.642,121.667,104.135,127.5,105.968C133.333,107.8,139.167,108.972,145,108.853C150.833,108.734,156.667,107.324,162.5,108.329C168.333,109.333,174.167,112.752,180,114.534C185.833,116.316,191.667,116.461,197.5,111.545C203.333,106.628,209.167,96.649,215,94.224C220.833,91.798,226.667,96.927,232.5,100.56C238.333,104.194,244.167,106.332,250,105.879C255.833,105.427,261.667,102.383,267.5,99.623C273.333,96.864,279.167,94.389,285,93.876C290.833,93.364,296.667,94.814,302.5,92.557C308.333,90.3,314.167,84.337,320,78.953C325.833,73.569,331.667,68.764,337.5,65.914C343.333,63.065,349.167,62.17,355,67.501C360.833,72.832,366.667,84.388,372.5,87.516C378.333,90.644,384.167,85.343,390,84.448C395.833,83.553,401.667,87.065,407.5,82.962C413.333,78.858,419.167,67.139,425,65.176C430.833,63.212,436.667,71.004,442.5,70.305C448.333,69.607,454.167,60.418,460,68.911C465.833,77.404,471.667,103.58,477.5,100.56C483.333,97.541,489.167,65.326,495,52C500.833,38.674,506.667,44.236,512.5,50.224C518.333,56.212,524.167,62.626,530,67.849C535.833,73.072,541.667,77.105,547.5,104.524C553.333,131.943,559.167,182.747,565,198.211C570.833,213.674,576.667,193.795,582.5,175.278C588.333,156.76,594.167,139.602,600,122.445"/></g><g aria-label="line" fill="none" stroke="red" stroke-width="2" stroke-linejoin="round" stroke-linecap="round"><path d="M40,220.73C45.833,220.47,51.667,220.21,57.5,219.986C63.333,219.762,69.167,219.574,75,219.362C80.833,219.15,86.667,218.914,92.5,218.735C98.333,218.557,104.167,218.437,110,218.372C115.833,218.307,121.667,218.297,127.5,218.253C133.333,218.209,139.167,218.131,145,217.839C150.833,217.546,156.667,217.038,162.5,216.677C168.333,216.317,174.167,216.104,180,216.11C185.833,216.115,191.667,216.339,197.5,215.512C203.333,214.685,209.167,212.808,215,212.011C220.833,211.215,226.667,211.499,232.5,211.85C238.333,212.2,244.167,212.617,250,212.486C255.833,212.354,261.667,211.674,267.5,210.995C273.333,210.317,279.167,209.639,285,209.331C290.833,209.023,296.667,209.084,302.5,208.363C308.333,207.643,314.167,206.141,320,204.626C325.833,203.111,331.667,201.583,337.5,200.813C343.333,200.043,349.167,200.031,355,200.267C360.833,200.504,366.667,200.988,372.5,200.927C378.333,200.867,384.167,200.262,390,200.263C395.833,200.264,401.667,200.872,407.5,199.077C413.333,197.282,419.167,193.083,425,192.161C430.833,191.239,436.667,193.593,442.5,191.837C448.333,190.081,454.167,184.214,460,189.845C465.833,195.476,471.667,212.604,477.5,211.85C483.333,211.095,489.167,192.458,495,185.536C500.833,178.614,506.667,183.408,512.5,184.994C518.333,186.579,524.167,184.957,530,184.661C535.833,184.365,541.667,185.396,547.5,193.481C553.333,201.566,559.167,216.705,565,219.983C570.833,223.261,576.667,214.68,582.5,209.119C588.333,203.558,594.167,201.019,600,198.479"/></g><g aria-label="rule" stroke="currentColor"><line x1="40" x2="600" y1="231.68" y2="231.68"/></g><g aria-label="tip" fill="var(--plot-background)" stroke="currentColor" pointer-events="none" text-anchor="start"/></svg>
